<svg xmlns="http://www.w3.org/2000/svg" xmlns:xlink="http://www.w3.org/1999/xlink" width="380" height="527" viewBox="0 0 380 527">
  <defs>
    <clipPath id="clip-path">
      <rect id="Rectangle_2386" data-name="Rectangle 2386" width="380" height="527" fill="#2fa802"/>
    </clipPath>
  </defs>
  <g id="Group_3114" data-name="Group 3114">
    <g id="Group_6334" data-name="Group 6334" clip-path="url(#clip-path)">
      <path id="Path_5409" data-name="Path 5409" d="M0,0H14.3A28.176,28.176,0,0,0,26.784,20.979C22.4,15.63,20,4.712,20,.638V0H30.263c-.27,3.05-.414,9.542-.414,9.542s.831,15.305,2.254,21.42A106.931,106.931,0,0,0,9.894,28.788c-3.415,0-6.73.138-9.894.4v-9.9H.661c4.226,0,15.545,2.321,21.091,6.547A29.639,29.639,0,0,0,0,13.792ZM0,527.146H14.3a28.176,28.176,0,0,1,12.484-20.979C22.4,511.515,20,522.432,20,526.508v.638H30.263a76.662,76.662,0,0,1-.414-9.543A113.634,113.634,0,0,1,32.1,496.184a126.368,126.368,0,0,1-22.209,2.174,85.419,85.419,0,0,1-9.894-.4v9.9H.661c4.226,0,15.545-2.322,21.091-6.547A29.637,29.637,0,0,1,0,513.353ZM380,0H365.7a28.176,28.176,0,0,1-12.484,20.979C357.6,15.63,360,4.712,360,.638V0H349.737c.269,3.05.413,6.247.413,9.542a96.285,96.285,0,0,1-2.253,21.42,106.927,106.927,0,0,1,22.208-2.174c3.416,0,6.731.138,9.895.4v-9.9h-.663c-4.224,0-15.545,2.321-21.091,6.547A29.642,29.642,0,0,1,380,13.792ZM344.713,0H35.286a63.988,63.988,0,0,1,2.746,18.154C44.287,9.961,57.165,3.14,67.956,3.14H312.042c10.791,0,23.671,6.82,29.925,15.013A63.985,63.985,0,0,1,344.713,0m-35.39,518.375v-.013c15.914-.3,30.354-10.332,35.541-25.1,15.025-4.914,25.713-18.737,26.035-34.279h.008V68.163H370.9c-.322-15.541-11.01-29.366-26.035-34.279-5.187-14.77-19.627-24.8-35.541-25.1V8.769H70.676v.014c-15.913.3-30.353,10.33-35.54,25.1C20.112,38.8,9.422,52.622,9.1,68.163H9.094V458.981H9.1c.32,15.543,11.01,29.366,26.035,34.279,5.187,14.77,19.627,24.8,35.54,25.1v.013Zm58.326-59.918h0c-.1,14.678-10.275,27.735-24.55,32.061h-.012l-.807.245-.255.786c-4.53,13.912-18.01,23.445-32.881,23.684H70.857c-14.87-.24-28.35-9.772-32.88-23.684l-.257-.786-.807-.245H36.9c-14.275-4.326-24.451-17.383-24.55-32.061h0V68.687h0c.1-14.678,10.275-27.734,24.55-32.061h.011l.807-.245.257-.786c4.53-13.912,18.01-23.445,32.88-23.684H309.142c14.872.24,28.351,9.772,32.881,23.684l.255.786.807.245h.012c14.275,4.327,24.45,17.383,24.55,32.061h0ZM380,527.146H365.7a28.176,28.176,0,0,0-12.484-20.979C357.6,511.515,360,522.432,360,526.508v.638H349.737a77,77,0,0,0,.413-9.543,113.629,113.629,0,0,0-2.253-21.419,126.353,126.353,0,0,0,22.208,2.174,85.43,85.43,0,0,0,9.895-.4v9.9h-.663c-4.224,0-15.545-2.322-21.091-6.547A29.64,29.64,0,0,0,380,513.353Zm-35.287,0H35.286a64,64,0,0,0,2.746-18.155C44.287,517.185,57.165,524,67.956,524H312.042c10.791,0,23.671-6.819,29.925-15.013a63.994,63.994,0,0,0,2.746,18.155M380,493.114V34.03a70.913,70.913,0,0,1-18.824,2.648c8.495,6.033,15.567,18.455,15.567,28.861V461.6c0,10.408-7.072,22.828-15.567,28.861A70.967,70.967,0,0,1,380,493.114M0,34.03V493.114a70.967,70.967,0,0,1,18.824-2.648C10.329,484.432,3.258,472.012,3.258,461.6V65.54c0-10.406,7.072-22.828,15.567-28.861A70.913,70.913,0,0,1,0,34.03" fill="#2fa802" fill-rule="evenodd"/>
    </g>
  </g>
</svg>
