<svg xmlns="http://www.w3.org/2000/svg" width="416.36" height="91.482" viewBox="0 0 416.36 91.482">
  <g id="icon_flags" transform="translate(27.414 99.35)">
    <g id="Group_6933" data-name="Group 6933" transform="translate(-27.414 -87.852)">
      <g id="Group_6932" data-name="Group 6932" transform="translate(0)">
        <g id="Group_6931" data-name="Group 6931">
          <g id="Group_6929" data-name="Group 6929" transform="translate(11.538 7.079)">
            <g id="Group_6904" data-name="Group 6904" transform="translate(0 49.783)">
              <g id="Group_6901" data-name="Group 6901">
                <path id="Path_7855" data-name="Path 7855" d="M-40.047,127.824l-4.493,9.4-1.212,2.541-5.127,10.743a.766.766,0,0,1-1.324.1l-6.741-9.811-6.556-9.542-.938-1.369,13.2-1.036Z" transform="translate(66.438 -127.824)" fill="#ffcf38"/>
              </g>
              <g id="Group_6902" data-name="Group 6902" transform="translate(2.146 2.425)">
                <path id="Path_7856" data-name="Path 7856" d="M-58.026,136.333a.869.869,0,0,0-.752,1.329c1.774,2.894,11.242,18.254,12.215,17.863,1.074-.432,5.291-8.323,5.289-9.541s-5.8,4.31-6.733,3.308-8.764-12.889-9.983-12.957Z" transform="translate(58.909 -136.332)" fill="#ffcf38" opacity="0.5" style="mix-blend-mode: screen;isolation: isolate"/>
              </g>
              <g id="Group_6903" data-name="Group 6903" opacity="0.5" style="mix-blend-mode: multiply;isolation: isolate">
                <path id="Path_7857" data-name="Path 7857" d="M-44.54,137.223h0a5.81,5.81,0,0,0-5.986-6.547l-14.974.582-.938-1.369,13.2-1.036,13.192-1.029Z" transform="translate(66.438 -127.824)" fill="#ffcf38"/>
              </g>
            </g>
            <g id="Group_6908" data-name="Group 6908" transform="translate(26.854 46.914)">
              <g id="Group_6905" data-name="Group 6905" transform="translate(0 0)">
                <path id="Path_7858" data-name="Path 7858" d="M54.058,117.758l-4.146,9.557L48.793,129.9,44.061,140.82a.767.767,0,0,1-1.32.154l-7.094-9.561-6.9-9.3-.986-1.333,13.153-1.515Z" transform="translate(-27.76 -117.758)" fill="#05c6c5"/>
              </g>
              <g id="Group_6906" data-name="Group 6906" transform="translate(2.19 3.273)">
                <path id="Path_7859" data-name="Path 7859" d="M36.293,129.24a.869.869,0,0,0-.7,1.357c1.878,2.826,11.9,17.833,12.856,17.406,1.058-.469,4.984-8.509,4.938-9.727s-5.637,4.517-6.606,3.551-9.227-12.56-10.448-12.587Z" transform="translate(-35.442 -129.24)" fill="#05c6c5" opacity="0.5" style="mix-blend-mode: screen;isolation: isolate"/>
              </g>
              <g id="Group_6907" data-name="Group 6907" transform="translate(0 0)" opacity="0.5" style="mix-blend-mode: multiply;isolation: isolate">
                <path id="Path_7860" data-name="Path 7860" d="M49.912,127.315h0a5.809,5.809,0,0,0-6.22-6.324l-14.945,1.124-.986-1.333,13.153-1.515,13.145-1.509Z" transform="translate(-27.76 -117.758)" fill="#05c6c5"/>
              </g>
            </g>
            <g id="Group_6912" data-name="Group 6912" transform="translate(53.985 42.113)">
              <g id="Group_6909" data-name="Group 6909" transform="translate(0)">
                <path id="Path_7861" data-name="Path 7861" d="M148.98,100.919l-3.525,9.8-.947,2.652-4.022,11.2a.767.767,0,0,1-1.307.238l-7.693-9.083L124,106.9l-1.071-1.268,13.029-2.359Z" transform="translate(-122.931 -100.919)" fill="#ffcf38"/>
              </g>
              <g id="Group_6910" data-name="Group 6910" transform="translate(2.255 4.761)" opacity="0.5" style="mix-blend-mode: screen;isolation: isolate">
                <path id="Path_7862" data-name="Path 7862" d="M131.638,117.622a.871.871,0,0,0-.615,1.4c2.054,2.7,13.022,17.03,13.951,16.542,1.025-.538,4.426-8.812,4.3-10.026s-5.336,4.873-6.367,3.968-10.016-11.939-11.233-11.887Z" transform="translate(-130.843 -117.619)" fill="#ffcf38"/>
              </g>
              <g id="Group_6911" data-name="Group 6911" transform="translate(0)" opacity="0.5" style="mix-blend-mode: multiply;isolation: isolate">
                <path id="Path_7863" data-name="Path 7863" d="M145.455,110.722h0a5.807,5.807,0,0,0-6.613-5.911L124,106.9l-1.071-1.268,13.029-2.359,13.021-2.351Z" transform="translate(-122.931 -100.919)" fill="#ffcf38"/>
              </g>
            </g>
            <g id="Group_6916" data-name="Group 6916" transform="translate(80.619 35.616)">
              <g id="Group_6913" data-name="Group 6913">
                <path id="Path_7864" data-name="Path 7864" d="M242.074,78.128l-2.921,10-.786,2.7-3.331,11.427a.765.765,0,0,1-1.289.317l-8.234-8.6L217.5,85.616l-1.143-1.2,12.859-3.147Z" transform="translate(-216.361 -78.128)" fill="#05c6c5"/>
              </g>
              <g id="Group_6914" data-name="Group 6914" transform="translate(2.304 6.151)" opacity="0.5" style="mix-blend-mode: screen;isolation: isolate">
                <path id="Path_7865" data-name="Path 7865" d="M225.187,99.708a.869.869,0,0,0-.529,1.433c2.214,2.571,14.034,16.207,14.93,15.664.991-.6,3.884-9.067,3.687-10.268s-5.03,5.186-6.113,4.349-10.725-11.308-11.939-11.181Z" transform="translate(-224.444 -99.704)" fill="#05c6c5"/>
              </g>
              <g id="Group_6915" data-name="Group 6915" opacity="0.5" style="mix-blend-mode: multiply;isolation: isolate">
                <path id="Path_7866" data-name="Path 7866" d="M239.153,88.128h0a5.808,5.808,0,0,0-6.962-5.5L217.5,85.616l-1.143-1.2,12.859-3.147,12.854-3.14Z" transform="translate(-216.361 -78.128)" fill="#05c6c5"/>
              </g>
            </g>
            <g id="Group_6920" data-name="Group 6920" transform="translate(106.99 26.738)">
              <g id="Group_6917" data-name="Group 6917" transform="translate(0)">
                <path id="Path_7867" data-name="Path 7867" d="M333.887,46.985,331.9,57.214l-.532,2.764-2.26,11.687a.767.767,0,0,1-1.255.435l-8.992-7.8-8.749-7.585-1.25-1.089L321.378,51.3Z" transform="translate(-308.866 -46.985)" fill="#ffcf38"/>
              </g>
              <g id="Group_6918" data-name="Group 6918" transform="translate(2.359 8.215)">
                <path id="Path_7868" data-name="Path 7868" d="M317.8,75.814a.87.87,0,0,0-.395,1.476c2.445,2.354,15.475,14.838,16.318,14.216.932-.689,3.026-9.386,2.718-10.565s-4.53,5.629-5.684,4.9-11.725-10.268-12.922-10.03Z" transform="translate(-317.14 -75.801)" fill="#ffcf38" opacity="0.5" style="mix-blend-mode: screen;isolation: isolate"/>
              </g>
              <g id="Group_6919" data-name="Group 6919" transform="translate(0)" opacity="0.5" style="mix-blend-mode: multiply;isolation: isolate">
                <path id="Path_7869" data-name="Path 7869" d="M331.9,57.214h0a5.808,5.808,0,0,0-7.441-4.83l-14.347,4.331-1.25-1.089L321.378,51.3l12.509-4.317Z" transform="translate(-308.866 -46.985)" fill="#ffcf38"/>
              </g>
            </g>
            <g id="Group_6924" data-name="Group 6924" transform="translate(132.477 14.945)">
              <g id="Group_6921" data-name="Group 6921" transform="translate(0 0)">
                <path id="Path_7870" data-name="Path 7870" d="M422.139,5.615,421.338,16l-.214,2.807-.907,11.869a.767.767,0,0,1-1.2.576l-9.825-6.722L399.637,18l-1.367-.939,11.935-5.724Z" transform="translate(-398.27 -5.615)" fill="#05c6c5"/>
              </g>
              <g id="Group_6922" data-name="Group 6922" transform="translate(2.386 10.662)" opacity="0.5" style="mix-blend-mode: screen;isolation: isolate">
                <path id="Path_7871" data-name="Path 7871" d="M407.208,43.038a.869.869,0,0,0-.222,1.512c2.7,2.059,17.066,12.972,17.834,12.257.845-.79,1.933-9.67,1.491-10.806s-3.855,6.109-5.086,5.512-12.822-8.86-13.983-8.487Z" transform="translate(-406.639 -43.015)" fill="#05c6c5"/>
              </g>
              <g id="Group_6923" data-name="Group 6923" transform="translate(0 0)" opacity="0.5" style="mix-blend-mode: multiply;isolation: isolate">
                <path id="Path_7872" data-name="Path 7872" d="M421.338,16h0a5.807,5.807,0,0,0-7.943-3.949L399.637,18l-1.367-.939,11.935-5.724,11.934-5.718Z" transform="translate(-398.27 -5.615)" fill="#05c6c5"/>
              </g>
            </g>
            <g id="Group_6928" data-name="Group 6928" transform="translate(156.37)">
              <g id="Group_6925" data-name="Group 6925">
                <path id="Path_7873" data-name="Path 7873" d="M503.976-46.808l.758,10.389.209,2.809.876,11.87a.767.767,0,0,1-1.1.748L494-26.17,483.575-31.2l-1.493-.726,10.948-7.442Z" transform="translate(-482.082 46.808)" fill="#ffcf38"/>
              </g>
              <g id="Group_6926" data-name="Group 6926" transform="translate(2.359 13.641)">
                <path id="Path_7874" data-name="Path 7874" d="M490.807,1.091a.87.87,0,0,0,.007,1.528c2.973,1.633,18.812,10.278,19.464,9.455.72-.907.468-9.85-.137-10.907s-2.9,6.618-4.206,6.211-14-6.846-15.1-6.3Z" transform="translate(-490.356 -1.042)" fill="#ffcf38" opacity="0.5" style="mix-blend-mode: screen;isolation: isolate"/>
              </g>
              <g id="Group_6927" data-name="Group 6927" opacity="0.5" style="mix-blend-mode: multiply;isolation: isolate">
                <path id="Path_7875" data-name="Path 7875" d="M504.734-36.419h0a5.807,5.807,0,0,0-8.443-2.716L483.575-31.2l-1.493-.726,10.948-7.442,10.946-7.436Z" transform="translate(-482.082 46.808)" fill="#ffcf38"/>
              </g>
            </g>
          </g>
          <g id="Group_6930" data-name="Group 6930">
            <path id="Path_7876" data-name="Path 7876" d="M-106.823-11.773h-.087l.009-2.295a490.255,490.255,0,0,0,75.886-7.013C6.8-27.592,58.112-41.651,87.809-71.64l1.629,1.614C76.115-56.57,57.481-45.136,34.056-36.042,15.364-28.784-6.411-22.988-30.663-18.813A495.392,495.392,0,0,1-106.823-11.773Z" transform="translate(106.91 71.64)" fill="#ffcf38"/>
          </g>
        </g>
      </g>
    </g>
    <g id="Group_6966" data-name="Group 6966" transform="translate(164.371 -99.35)">
      <g id="Group_6965" data-name="Group 6965">
        <g id="Group_6964" data-name="Group 6964">
          <g id="Group_6962" data-name="Group 6962" transform="translate(5.377 8.097)">
            <g id="Group_6937" data-name="Group 6937" transform="translate(175.816 56.94)">
              <g id="Group_6934" data-name="Group 6934" transform="translate(0 0)">
                <path id="Path_7877" data-name="Path 7877" d="M1126.164,99.115l5.138,10.75,1.387,2.906,5.863,12.287a.877.877,0,0,0,1.515.12l7.71-11.221,7.5-10.914,1.073-1.566-15.1-1.185Z" transform="translate(-1126.164 -99.115)" fill="#ffcf38"/>
              </g>
              <g id="Group_6935" data-name="Group 6935" transform="translate(7.56 2.774)">
                <path id="Path_7878" data-name="Path 7878" d="M1168.51,107.624a.993.993,0,0,1,.861,1.52c-2.029,3.309-12.858,20.878-13.971,20.431-1.228-.494-6.051-9.52-6.049-10.913s6.631,4.93,7.7,3.784,10.024-14.742,11.418-14.82Z" transform="translate(-1149.35 -107.623)" fill="#ffcf38" opacity="0.5" style="mix-blend-mode: screen;isolation: isolate"/>
              </g>
              <g id="Group_6936" data-name="Group 6936" transform="translate(0 0)" opacity="0.5" style="mix-blend-mode: multiply;isolation: isolate">
                <path id="Path_7879" data-name="Path 7879" d="M1131.3,109.865h0a6.645,6.645,0,0,1,6.847-7.488l17.127.666,1.073-1.566-15.1-1.185-15.088-1.177Z" transform="translate(-1126.164 -99.115)" fill="#ffcf38"/>
              </g>
            </g>
            <g id="Group_6941" data-name="Group 6941" transform="translate(145.208 53.658)">
              <g id="Group_6938" data-name="Group 6938">
                <path id="Path_7880" data-name="Path 7880" d="M1032.293,89.049l4.742,10.93,1.28,2.956,5.412,12.49a.878.878,0,0,0,1.51.176l8.114-10.935,7.892-10.636,1.128-1.525-15.044-1.732Z" transform="translate(-1032.293 -89.049)" fill="#05c6c5"/>
              </g>
              <g id="Group_6939" data-name="Group 6939" transform="translate(7.052 3.743)">
                <path id="Path_7881" data-name="Path 7881" d="M1073.469,100.53a1,1,0,0,1,.8,1.552c-2.147,3.233-13.607,20.4-14.7,19.908-1.21-.537-5.7-9.732-5.648-11.125s6.447,5.166,7.556,4.061,10.553-14.366,11.95-14.4Z" transform="translate(-1053.921 -100.53)" fill="#05c6c5" opacity="0.5" style="mix-blend-mode: screen;isolation: isolate"/>
              </g>
              <g id="Group_6940" data-name="Group 6940" opacity="0.5" style="mix-blend-mode: multiply;isolation: isolate">
                <path id="Path_7882" data-name="Path 7882" d="M1037.035,99.979h0a6.644,6.644,0,0,1,7.114-7.233l17.094,1.286,1.128-1.525-15.044-1.732-15.034-1.725Z" transform="translate(-1032.293 -89.049)" fill="#05c6c5"/>
              </g>
            </g>
            <g id="Group_6945" data-name="Group 6945" transform="translate(114.461 48.167)">
              <g id="Group_6942" data-name="Group 6942">
                <path id="Path_7883" data-name="Path 7883" d="M937.993,72.209l4.032,11.212,1.083,3.034,4.6,12.813a.877.877,0,0,0,1.5.273L958,89.151l8.56-10.1,1.225-1.451-14.9-2.7Z" transform="translate(-937.993 -72.209)" fill="#ffcf38"/>
              </g>
              <g id="Group_6943" data-name="Group 6943" transform="translate(6.128 5.446)" opacity="0.5" style="mix-blend-mode: screen;isolation: isolate">
                <path id="Path_7884" data-name="Path 7884" d="M976.965,88.913a1,1,0,0,1,.7,1.6c-2.35,3.086-14.895,19.479-15.956,18.92-1.173-.615-5.063-10.079-4.921-11.467s6.1,5.573,7.282,4.539,11.456-13.656,12.848-13.6Z" transform="translate(-956.788 -88.91)" fill="#ffcf38"/>
              </g>
              <g id="Group_6944" data-name="Group 6944" opacity="0.5" style="mix-blend-mode: multiply;isolation: isolate">
                <path id="Path_7885" data-name="Path 7885" d="M942.025,83.421h0a6.642,6.642,0,0,1,7.564-6.76l16.973,2.385,1.225-1.451-14.9-2.7-14.892-2.689Z" transform="translate(-937.993 -72.209)" fill="#ffcf38"/>
              </g>
            </g>
            <g id="Group_6949" data-name="Group 6949" transform="translate(84.383 40.736)">
              <g id="Group_6946" data-name="Group 6946">
                <path id="Path_7886" data-name="Path 7886" d="M845.743,49.419l3.341,11.437.9,3.094,3.81,13.069a.875.875,0,0,0,1.474.362l9.417-9.834,9.161-9.565,1.307-1.373-14.707-3.6Z" transform="translate(-845.743 -49.419)" fill="#05c6c5"/>
              </g>
              <g id="Group_6947" data-name="Group 6947" transform="translate(5.225 7.035)" opacity="0.5" style="mix-blend-mode: screen;isolation: isolate">
                <path id="Path_7887" data-name="Path 7887" d="M882.467,71a.994.994,0,0,1,.6,1.639c-2.532,2.94-16.052,18.536-17.077,17.916-1.133-.686-4.442-10.37-4.217-11.744s5.753,5.932,6.992,4.974S881.037,70.85,882.426,71Z" transform="translate(-861.767 -70.994)" fill="#05c6c5"/>
              </g>
              <g id="Group_6948" data-name="Group 6948" opacity="0.5" style="mix-blend-mode: multiply;isolation: isolate">
                <path id="Path_7888" data-name="Path 7888" d="M849.084,60.856h0a6.643,6.643,0,0,1,7.963-6.287l16.8,3.414,1.307-1.373-14.707-3.6-14.7-3.592Z" transform="translate(-845.743 -49.419)" fill="#05c6c5"/>
              </g>
            </g>
            <g id="Group_6953" data-name="Group 6953" transform="translate(55.012 30.582)">
              <g id="Group_6950" data-name="Group 6950" transform="translate(0 0)">
                <path id="Path_7889" data-name="Path 7889" d="M755.666,18.276l2.268,11.7.609,3.162L761.127,46.5a.877.877,0,0,0,1.435.5l10.285-8.922L782.854,29.4l1.429-1.246-14.31-4.944Z" transform="translate(-755.666 -18.276)" fill="#ffcf38"/>
              </g>
              <g id="Group_6951" data-name="Group 6951" transform="translate(3.805 9.396)">
                <path id="Path_7890" data-name="Path 7890" d="M788.692,47.105a1,1,0,0,1,.452,1.688c-2.8,2.692-17.7,16.971-18.664,16.259-1.066-.788-3.461-10.735-3.109-12.084s5.181,6.439,6.5,5.6,13.41-11.744,14.78-11.471Z" transform="translate(-767.335 -47.092)" fill="#ffcf38" opacity="0.5" style="mix-blend-mode: screen;isolation: isolate"/>
              </g>
              <g id="Group_6952" data-name="Group 6952" transform="translate(0 0)" opacity="0.5" style="mix-blend-mode: multiply;isolation: isolate">
                <path id="Path_7891" data-name="Path 7891" d="M757.934,29.975h0a6.644,6.644,0,0,1,8.511-5.524L782.854,29.4l1.429-1.246-14.31-4.944-14.307-4.937Z" transform="translate(-755.666 -18.276)" fill="#ffcf38"/>
              </g>
            </g>
            <g id="Group_6957" data-name="Group 6957" transform="translate(27.178 17.093)">
              <g id="Group_6954" data-name="Group 6954">
                <path id="Path_7892" data-name="Path 7892" d="M670.3-23.095l.916,11.881L671.462-8,672.5,5.572a.877.877,0,0,0,1.369.658l11.238-7.688,10.93-7.476,1.563-1.075-13.651-6.547Z" transform="translate(-670.301 23.095)" fill="#05c6c5"/>
              </g>
              <g id="Group_6955" data-name="Group 6955" transform="translate(1.955 12.195)" opacity="0.5" style="mix-blend-mode: screen;isolation: isolate">
                <path id="Path_7893" data-name="Path 7893" d="M698.263,14.332a1,1,0,0,1,.254,1.73C695.435,18.417,679,30.9,678.119,30.081c-.966-.9-2.211-11.061-1.705-12.359s4.409,6.987,5.817,6.3,14.665-10.134,15.993-9.707A.411.411,0,0,0,698.263,14.332Z" transform="translate(-676.297 -14.305)" fill="#05c6c5"/>
              </g>
              <g id="Group_6956" data-name="Group 6956" opacity="0.5" style="mix-blend-mode: multiply;isolation: isolate">
                <path id="Path_7894" data-name="Path 7894" d="M671.217-11.214h0A6.642,6.642,0,0,1,680.3-15.73l15.736,6.8,1.563-1.075-13.651-6.547-13.65-6.54Z" transform="translate(-670.301 23.095)" fill="#05c6c5"/>
              </g>
            </g>
            <g id="Group_6961" data-name="Group 6961">
              <g id="Group_6958" data-name="Group 6958">
                <path id="Path_7895" data-name="Path 7895" d="M589.056-75.517l-.867,11.882-.239,3.214-1,13.576a.878.878,0,0,0,1.257.856l12.261-5.923,11.924-5.759L614.1-58.5l-12.522-8.512Z" transform="translate(-586.946 75.517)" fill="#ffcf38"/>
              </g>
              <g id="Group_6959" data-name="Group 6959" transform="translate(1.167 15.602)">
                <path id="Path_7896" data-name="Path 7896" d="M613.3-27.611a1,1,0,0,1-.007,1.748c-3.4,1.867-21.516,11.755-22.262,10.814-.823-1.038-.535-11.266.157-12.475s3.316,7.569,4.81,7.1,16.017-7.831,17.265-7.209C613.274-27.624,613.286-27.617,613.3-27.611Z" transform="translate(-590.527 27.667)" fill="#ffcf38" opacity="0.5" style="mix-blend-mode: screen;isolation: isolate"/>
              </g>
              <g id="Group_6960" data-name="Group 6960" transform="translate(1.243)" opacity="0.5" style="mix-blend-mode: multiply;isolation: isolate">
                <path id="Path_7897" data-name="Path 7897" d="M590.758-63.635h0a6.642,6.642,0,0,1,9.656-3.107l14.544,9.071,1.708-.829-12.522-8.512-12.52-8.505Z" transform="translate(-590.758 75.517)" fill="#ffcf38"/>
              </g>
            </g>
          </g>
          <g id="Group_6963" data-name="Group 6963">
            <path id="Path_7898" data-name="Path 7898" d="M794.929-31.877h.1l-.011-2.624a560.71,560.71,0,0,1-86.8-8.021C664.972-49.97,606.283-66.049,572.317-100.35L570.454-98.5c15.238,15.39,36.551,28.468,63.344,38.869,21.379,8.3,46.284,14.93,74.022,19.706A566.606,566.606,0,0,0,794.929-31.877Z" transform="translate(-570.454 100.35)" fill="#ffcf38"/>
          </g>
        </g>
      </g>
    </g>
  </g>
</svg>
