<svg xmlns="http://www.w3.org/2000/svg" xmlns:xlink="http://www.w3.org/1999/xlink" width="111.395" height="150.112" viewBox="0 0 111.395 150.112">
  <defs>
    <radialGradient id="radial-gradient" cx="0.5" cy="0.5" r="0.5" gradientUnits="objectBoundingBox">
      <stop offset="0"/>
      <stop offset="0.11" stop-color="#040404"/>
      <stop offset="0.234" stop-color="#121212"/>
      <stop offset="0.365" stop-color="#282828"/>
      <stop offset="0.5" stop-color="#484848"/>
      <stop offset="0.639" stop-color="#707070"/>
      <stop offset="0.78" stop-color="#a2a2a2"/>
      <stop offset="0.922" stop-color="#dbdbdb"/>
      <stop offset="1" stop-color="#fff"/>
    </radialGradient>
    <linearGradient id="linear-gradient" x1="0.408" y1="1.982" x2="1.054" y2="0.484" gradientUnits="objectBoundingBox">
      <stop offset="0" stop-color="#fff" stop-opacity="0"/>
      <stop offset="1" stop-color="#fff"/>
    </linearGradient>
    <radialGradient id="radial-gradient-2" cx="0.5" cy="0.5" r="0.5" gradientUnits="objectBoundingBox">
      <stop offset="0"/>
      <stop offset="1" stop-color="#fff"/>
    </radialGradient>
    <linearGradient id="linear-gradient-2" x1="0.105" y1="0.971" x2="0.677" y2="-0.695" xlink:href="#linear-gradient"/>
  </defs>
  <g id="icon_ballons_two" transform="translate(-795.684 165.25) rotate(-19)">
    <g id="Group_6978" data-name="Group 6978" transform="translate(800.209 120.011)">
      <path id="Path_7919" data-name="Path 7919" d="M963.747,414.057c-.361-1.855-2.69-5.786-4.544-5.424s-2.537,4.878-2.177,6.734,1.91,1.783,3.764,1.421S964.108,415.914,963.747,414.057Z" transform="translate(-924.338 -348.588)" fill="#ff8c24"/>
      <path id="Path_7920" data-name="Path 7920" d="M963.729,408.633a1.792,1.792,0,0,0-1.081.808,9.662,9.662,0,0,1,3.239,5.082c.281,1.434-.532,2.066-1.772,2.447a11.452,11.452,0,0,0,1.2-.182c1.858-.361,3.318-.874,2.957-2.731S965.584,408.272,963.729,408.633Z" transform="translate(-928.864 -348.588)" fill="#db0b20" opacity="0.38"/>
      <path id="Path_7921" data-name="Path 7921" d="M940.738,416.3c-1.312.2-6.357-1.615-6.156,1.211.1,2.523,4.944.1,5.853-1.01-1.009,2.018-2.119,8.679,2.523,6.963,3.329-1.211.5-5.046-1.11-6.358" transform="translate(-906.631 -354.37)" fill="none" stroke="#f7941e" stroke-width="0.25"/>
      <path id="Path_7922" data-name="Path 7922" d="M966.629,419.244a73.887,73.887,0,0,0,1.513,14.127c.606,3.229,2.322,5.65,3.431,8.577,2.322,6.358,5.551,11.907,5.551,18.971a32.705,32.705,0,0,1-1.616,9.889c-1.008,3.229-2.725,5.651-4.137,8.678" transform="translate(-932.017 -357.01)" fill="none" stroke="#f7941e" stroke-width="0.25"/>
      <g id="Group_6977" data-name="Group 6977" transform="translate(0 0)">
        <path id="Path_7923" data-name="Path 7923" d="M883.34,160.62a29.749,29.749,0,1,0-23.512,34.889A29.749,29.749,0,0,0,883.34,160.62Z" transform="translate(-819.356 -133.113)" fill="url(#radial-gradient)" style="mix-blend-mode: multiply;isolation: isolate"/>
        <g id="Group_6976" data-name="Group 6976">
          <path id="Path_7924" data-name="Path 7924" d="M855.53,142.594a27.916,27.916,0,1,0-54.8,10.675c2.948,15.133,19.005,32.2,34.139,29.25S858.479,157.727,855.53,142.594Z" transform="translate(-800.209 -120.011)" fill="#ff8c24"/>
          <path id="Path_7925" data-name="Path 7925" d="M895.99,120.531a28.382,28.382,0,0,0-3.361.873,26.175,26.175,0,0,1,25.662,21.166c2.764,14.186-5.183,34.662-19.368,37.426a17.327,17.327,0,0,1-4.54.268,21.346,21.346,0,0,0,13.684,2.256c15.134-2.948,23.611-24.793,20.663-39.925A27.916,27.916,0,0,0,895.99,120.531Z" transform="translate(-873.408 -120.011)" fill="#f7461c" opacity="0.38"/>
          <path id="Path_7926" data-name="Path 7926" d="M928.59,120.029a27.926,27.926,0,0,1,22.154,22.088c2.947,15.133-5.531,36.978-20.664,39.925a18.181,18.181,0,0,1-2.068.278,19.282,19.282,0,0,0,8.079.2c15.134-2.948,23.611-24.793,20.663-39.925A27.921,27.921,0,0,0,928.59,120.029Z" transform="translate(-901.432 -120.016)" fill="#db0b20" opacity="0.38"/>
          <path id="Path_7927" data-name="Path 7927" d="M824.328,181.707c-.538-.189-1.258-.441-1.778-.673-.886-.4-2.055-.959-2.909-1.422a33.606,33.606,0,0,1-3.833-2.513,38.888,38.888,0,0,1-4.1-3.594,43.217,43.217,0,0,1-3.513-4.015c-.508-.641-1.136-1.536-1.595-2.213-.423-.626-.961-1.482-1.346-2.133a39.625,39.625,0,0,1-2.318-4.569,34.151,34.151,0,0,1-1.622-4.674,41.32,41.32,0,0,1-.8-4.266,16.678,16.678,0,0,1-.161-2.444c.011-.664,0-1.552.039-2.216a22.2,22.2,0,0,1,.243-2.394c.117-.64.249-1.5.4-2.13.162-.7.412-1.632.631-2.319.193-.605.477-1.4.719-1.992.28-.679.667-1.579,1.016-2.223a36.622,36.622,0,0,1,2.122-3.5c.43-.6,1.034-1.368,1.5-1.932.369-.44.881-1.006,1.287-1.41.544-.541,1.295-1.241,1.872-1.749.366-.323.873-.73,1.268-1.018s.9-.655,1.293-.921c.329-.223.78-.5,1.118-.709.55-.342,1.315-.75,1.9-1.04a28.975,28.975,0,0,1,2.777-1.214c.414-.161,1.4-.5,2.169-.708a27.97,27.97,0,0,1,5.574-.973c1.328-.095,2.32-.07,2.329-.07.578.015,1.351.049,1.927.089.385.027.9.086,1.279.135.447.056,1.04.149,1.484.232s1.061.217,1.513.322c.71.163,1.639.451,2.333.674a21.652,21.652,0,0,0-13.951.139,21.652,21.652,0,0,1,13.951-.139h0a35.863,35.863,0,0,1,3.509,1.45c.7.36,1.618.864,2.292,1.27.526.318,1.21.773,1.705,1.141.613.458,1.418,1.09,2,1.59.481.412,1.093.995,1.537,1.445a27.684,27.684,0,0,1,5.268,7.5c.314.658.694,1.552.952,2.234.239.63.507,1.49.7,2.133.218.712.433,1.685.576,2.416.134.686.255,1.61.351,2.3.145,1.066.175,2.507.211,3.583a37.408,37.408,0,0,1-.308,5.09,42.376,42.376,0,0,1-.963,5.1,41.265,41.265,0,0,1-3.74,9.637,34.306,34.306,0,0,1-2.679,4.2c-.389.522-.928,1.2-1.354,1.692-.495.565-1.183,1.291-1.715,1.822-.362.363-.866.827-1.264,1.151a22.568,22.568,0,0,1-2.094,1.589,21.908,21.908,0,0,1-3.035,1.7A18.358,18.358,0,0,1,835.5,182.4c-.3.072-.966.211-1.593.3-.836.115-1.435.155-1.788.168-.333.012-.779.019-1.113.019-.21,0-.488-.011-.7-.02-.881-.038-1.677-.15-1.685-.151-.327-.048-.765-.109-1.09-.172-.4-.076-.937-.2-1.335-.289C825.631,182.12,824.88,181.9,824.328,181.707Z" transform="translate(-800.318 -120.535)" fill="none"/>
          <path id="Path_7928" data-name="Path 7928" d="M841.21,166.359c3.653-8.96.515-18.71-7.008-21.778s-16.586,1.709-20.239,10.669-2.25,22.965,5.274,26.033S837.557,175.319,841.21,166.359Z" transform="translate(-809.573 -138.735)" fill="url(#linear-gradient)" style="mix-blend-mode: overlay;isolation: isolate"/>
        </g>
      </g>
    </g>
    <g id="Group_6982" data-name="Group 6982" transform="translate(819.392 152.401)">
      <path id="Path_7929" data-name="Path 7929" d="M985.453,337.246a29.087,29.087,0,1,0-34.708,22.079A29.087,29.087,0,0,0,985.453,337.246Z" transform="translate(-920.578 -296.414)" fill="url(#radial-gradient-2)" style="mix-blend-mode: multiply;isolation: isolate"/>
      <g id="Group_6981" data-name="Group 6981" transform="translate(0 0)">
        <g id="Group_6979" data-name="Group 6979" transform="translate(14.16 57.201)">
          <path id="Path_7930" data-name="Path 7930" d="M968.831,559.226c.541-2.265-.065-7.858-2.331-8.4s-5.332,4.176-5.872,6.441,1.231,2.973,3.5,3.513S968.292,561.491,968.831,559.226Z" transform="translate(-960.531 -550.784)" fill="#00b1ff"/>
          <path id="Path_7931" data-name="Path 7931" d="M974.7,550.827a2.205,2.205,0,0,0-1.623.354c1.191,1.855,1.46,5.6,1.041,7.349s-1.65,2.046-3.234,1.839a14.221,14.221,0,0,0,1.44.411c2.267.541,4.167.71,4.707-1.555S976.968,551.368,974.7,550.827Z" transform="translate(-968.732 -550.785)" fill="#0086ff"/>
        </g>
        <path id="Path_7932" data-name="Path 7932" d="M954.814,559.914c-1.312.2-6.357-1.614-6.154,1.211.1,2.523,4.943.1,5.852-1.008-1.009,2.018-2.119,8.678,2.522,6.963,3.331-1.211.506-5.046-1.109-6.357" transform="translate(-936.963 -500.506)" fill="none" stroke="#01f" stroke-width="0.25"/>
        <path id="Path_7933" data-name="Path 7933" d="M980.7,562.856a73.859,73.859,0,0,0,1.513,14.127c.606,3.228,2.322,5.65,3.432,8.577,2.32,6.357,5.549,11.907,5.549,18.971a32.7,32.7,0,0,1-1.615,9.888c-1.009,3.229-2.724,5.651-4.137,8.677" transform="translate(-962.344 -503.145)" fill="none" stroke="#01f" stroke-width="0.25"/>
        <g id="Group_6980" data-name="Group 6980">
          <path id="Path_7934" data-name="Path 7934" d="M946.53,308.924c-2.658,11.954-13.816,24.929-25.8,27.592a18.975,18.975,0,0,1-7.99.131c-.1-.017-.188-.038-.283-.059a17.908,17.908,0,0,1-3.667-1.248,20.92,20.92,0,0,1-5.45-3.727,29.057,29.057,0,0,1-5.065-6.374,39.015,39.015,0,0,1-3.647-8.157,39.521,39.521,0,0,1-1.307-19.988,27.252,27.252,0,0,1,53.2,11.831Z" transform="translate(-892.554 -275.752)" fill="#00b1ff"/>
          <path id="Path_7935" data-name="Path 7935" d="M958.265,276.884a27.485,27.485,0,0,0-3.349-.531,25.552,25.552,0,0,1,14.7,28.954c-3.063,13.772-18.164,28.993-31.936,25.931a16.987,16.987,0,0,1-4.165-1.531,20.836,20.836,0,0,0,11.363,7.357c14.691,3.268,30.8-12.971,34.07-27.663A27.252,27.252,0,0,0,958.265,276.884Z" transform="translate(-924.977 -276.228)" fill="#0086ff"/>
          <path id="Path_7936" data-name="Path 7936" d="M978.606,285.306a27.26,27.26,0,0,1,11.206,28.408c-3.267,14.692-19.378,30.931-34.069,27.664a17.744,17.744,0,0,1-1.958-.558,18.813,18.813,0,0,0,7.149,3.335c14.691,3.268,30.8-12.971,34.07-27.663A27.258,27.258,0,0,0,978.606,285.306Z" transform="translate(-941.028 -283.319)" fill="#0073c9"/>
          <path id="Path_7937" data-name="Path 7937" d="M903.345,331.773c-.408-.38-.955-.885-1.33-1.3-.639-.7-1.463-1.66-2.047-2.407a32.7,32.7,0,0,1-2.45-3.744,38.34,38.34,0,0,1-2.269-4.817,42.574,42.574,0,0,1-1.576-4.963c-.205-.772-.417-1.817-.563-2.6-.136-.726-.282-1.7-.373-2.434a38.817,38.817,0,0,1-.292-4.992,32.987,32.987,0,0,1,.374-4.815,39.645,39.645,0,0,1,.945-4.13,16.3,16.3,0,0,1,.81-2.251c.27-.591.6-1.389.9-1.967a21.621,21.621,0,0,1,1.153-2.048c.354-.526.806-1.241,1.184-1.751.419-.565,1.005-1.3,1.469-1.828.408-.466.977-1.07,1.422-1.5.516-.5,1.212-1.153,1.777-1.593a36.1,36.1,0,0,1,3.263-2.3c.616-.366,1.459-.82,2.1-1.141.5-.249,1.181-.557,1.7-.759.7-.273,1.644-.605,2.358-.835.453-.146,1.066-.313,1.532-.416s1.06-.236,1.516-.321c.381-.07.893-.143,1.277-.2.626-.091,1.47-.158,2.1-.192a28.687,28.687,0,0,1,2.961,0c.431.017,1.442.1,2.216.212a27.332,27.332,0,0,1,5.368,1.3c1.226.434,2.1.842,2.112.847.513.24,1.19.57,1.69.832.333.174.768.426,1.09.619.378.224.873.539,1.239.786s.863.609,1.229.879c.571.424,1.291,1.045,1.825,1.513a21.135,21.135,0,0,0-12.539-5.32,21.135,21.135,0,0,1,12.539,5.32h0a35.175,35.175,0,0,1,2.573,2.667c.485.6,1.111,1.4,1.554,2.031.348.49.783,1.164,1.081,1.687.371.649.844,1.528,1.169,2.2.269.555.589,1.316.811,1.893a27.068,27.068,0,0,1,1.788,8.766c.024.71.015,1.66-.02,2.371-.033.658-.129,1.529-.2,2.183-.082.723-.27,1.677-.427,2.387-.146.667-.4,1.541-.584,2.2-.286,1.011-.822,2.311-1.209,3.288a36.616,36.616,0,0,1-2.262,4.435,41.26,41.26,0,0,1-2.852,4.188,40.307,40.307,0,0,1-7.106,7.164,33.517,33.517,0,0,1-4.038,2.712c-.55.316-1.3.714-1.871.986-.663.313-1.563.693-2.245.961-.467.183-1.1.4-1.58.536a22.364,22.364,0,0,1-2.494.605,21.315,21.315,0,0,1-3.377.334,17.93,17.93,0,0,1-3.694-.3c-.294-.05-.946-.188-1.541-.355-.794-.224-1.344-.421-1.665-.548-.3-.119-.7-.286-1-.417-.187-.082-.433-.2-.615-.29-.774-.377-1.444-.789-1.45-.792-.275-.172-.642-.4-.909-.58-.331-.225-.762-.539-1.083-.778C904.349,332.649,903.763,332.161,903.345,331.773Z" transform="translate(-892.445 -276.287)" fill="none"/>
          <path id="Path_7938" data-name="Path 7938" d="M933.63,310.75c6.749-6.576,7.744-16.5,2.222-22.169s-15.471-4.931-22.219,1.645-10.948,19.625-5.427,25.293S926.882,317.327,933.63,310.75Z" transform="translate(-902.909 -282.894)" fill="url(#linear-gradient-2)" style="mix-blend-mode: overlay;isolation: isolate"/>
        </g>
      </g>
    </g>
  </g>
</svg>
