<svg xmlns="http://www.w3.org/2000/svg" width="108.757" height="107.851" viewBox="0 0 108.757 107.851">
  <path id="icon_hand" d="M147.462,59.9c1.951,0,3.254-.714,3.573-1.961.512-2-1.388-5.343-6.787-8.3L117.639,35.04a.872.872,0,1,1,.839-1.528L139.428,45a11.89,11.89,0,0,0,5.493,1.618h0c2.083,0,3.615-.924,4-2.411.442-1.725-.666-4.63-5.244-7.14l-33.2-18.206c-.33-.181-1.334-.731-1.21-1.722.177-1.416,2.367-1.981,7.659-3.348,1.94-.5,4.139-1.069,6.524-1.764,4.524-1.32,7.382-5.97,6.914-9.246C130.1.96,128.845,0,126.726,0A6.82,6.82,0,0,0,123.8.474C112.411,5.641,84.19.8,73.082,21.859,66.7,33.954,72.419,45,90.657,55L120.8,71.535a11.961,11.961,0,0,0,5.573,1.663c2.081,0,3.613-.922,4-2.407.442-1.712-.646-4.6-5.169-7.1l-.006,0-17.887-9.81a.872.872,0,0,1,.837-1.529l17.895,9.813,0,0h0l6.8,3.73a15.825,15.825,0,0,0,7.459,2.317c2,0,3.389-.748,3.711-2,.493-1.925-1.39-5.173-6.7-8.122l-24.983-13.7a.872.872,0,0,1,.837-1.529l26.748,14.667c3.579,1.965,6.076,2.376,7.539,2.376Z" transform="matrix(-0.766, -0.643, 0.643, -0.766, 115.763, 153.208)" fill="#fff"/>
</svg>
