<svg xmlns="http://www.w3.org/2000/svg" xmlns:xlink="http://www.w3.org/1999/xlink" width="125.523" height="156.605" viewBox="0 0 125.523 156.605">
  <defs>
    <radialGradient id="radial-gradient" cx="0.5" cy="0.5" r="0.5" gradientUnits="objectBoundingBox">
      <stop offset="0"/>
      <stop offset="0.11" stop-color="#040404"/>
      <stop offset="0.234" stop-color="#121212"/>
      <stop offset="0.365" stop-color="#282828"/>
      <stop offset="0.5" stop-color="#484848"/>
      <stop offset="0.639" stop-color="#707070"/>
      <stop offset="0.78" stop-color="#a2a2a2"/>
      <stop offset="0.922" stop-color="#dbdbdb"/>
      <stop offset="1" stop-color="#fff"/>
    </radialGradient>
    <radialGradient id="radial-gradient-2" cx="0.5" cy="0.5" r="0.5" gradientUnits="objectBoundingBox">
      <stop offset="0"/>
      <stop offset="1" stop-color="#fff"/>
    </radialGradient>
    <linearGradient id="linear-gradient" x1="10.567" y1="-0.971" x2="11.139" y2="-2.636" gradientUnits="objectBoundingBox">
      <stop offset="0" stop-color="#fff" stop-opacity="0.502"/>
      <stop offset="1" stop-color="#fff"/>
    </linearGradient>
  </defs>
  <g id="icons_balloons_one" transform="translate(150.622 67.464) rotate(25)">
    <g id="Group_6970" data-name="Group 6970" transform="translate(-109.353 -27.125)">
      <path id="Path_7899" data-name="Path 7899" d="M86.863,267.3c.387-1.984,2.876-6.186,4.859-5.8s2.713,5.216,2.328,7.2-2.043,1.907-4.025,1.519S86.477,269.284,86.863,267.3Z" transform="translate(-59.993 -197.293)" fill="#ff8c24"/>
      <path id="Path_7900" data-name="Path 7900" d="M91.723,261.5a1.914,1.914,0,0,1,1.156.863,10.331,10.331,0,0,0-3.463,5.434c-.3,1.534.569,2.21,1.9,2.617a12.3,12.3,0,0,1-1.285-.194c-1.986-.386-3.548-.935-3.162-2.92S89.739,261.113,91.723,261.5Z" transform="translate(-59.993 -197.293)" fill="#db0b20" opacity="0.38"/>
      <path id="Path_7901" data-name="Path 7901" d="M98.462,269.192c1.4.215,6.8-1.727,6.582,1.295-.109,2.7-5.287.108-6.259-1.079,1.079,2.158,2.266,9.28-2.7,7.446-3.56-1.3-.538-5.4,1.187-6.8" transform="translate(-65.923 -202.969)" fill="none" stroke="#f7941e" stroke-width="0.25"/>
      <path id="Path_7902" data-name="Path 7902" d="M70.9,272.107a79,79,0,0,1-1.618,15.106c-.648,3.453-2.483,6.042-3.669,9.171-2.483,6.8-5.936,12.732-5.936,20.285A34.973,34.973,0,0,0,61.4,327.243c1.077,3.453,2.914,6.042,4.423,9.279" transform="translate(-38.898 -205.561)" fill="none" stroke="#f7941e" stroke-width="0.25"/>
      <g id="Group_6969" data-name="Group 6969" transform="translate(0 0)">
        <path id="Path_7903" data-name="Path 7903" d="M-33.162,15.152A31.811,31.811,0,0,1,4.146-9.989a31.81,31.81,0,0,1,25.14,37.306A31.811,31.811,0,0,1-8.021,52.459,31.811,31.811,0,0,1-33.162,15.152Z" transform="translate(33.755 14.261)" fill="url(#radial-gradient)" style="mix-blend-mode: multiply;isolation: isolate"/>
        <g id="Group_6968" data-name="Group 6968" transform="translate(9.205)">
          <path id="Path_7904" data-name="Path 7904" d="M8.385-2.977a29.85,29.85,0,1,1,58.6,11.415C63.832,24.62,46.662,42.867,30.48,39.715S5.233,13.2,8.385-2.977Z" transform="translate(-7.735 27.125)" fill="#ff08ec"/>
          <path id="Path_7905" data-name="Path 7905" d="M43.393-26.569a30.352,30.352,0,0,1,3.594.933A27.989,27.989,0,0,0,19.547-3c-2.956,15.169,5.542,37.064,20.71,40.019a18.528,18.528,0,0,0,4.855.286A22.825,22.825,0,0,1,30.48,39.715C14.3,36.563,5.233,13.2,8.385-2.977A29.85,29.85,0,0,1,43.393-26.569Z" transform="translate(-7.735 27.125)" fill="#f7461c" opacity="0.38"/>
          <path id="Path_7906" data-name="Path 7906" d="M38.5-27.106A29.861,29.861,0,0,0,14.812-3.488c-3.151,16.181,5.915,39.54,22.1,42.692a19.336,19.336,0,0,0,2.211.3,20.618,20.618,0,0,1-8.639.219C14.3,36.568,5.233,13.21,8.385-2.972A29.856,29.856,0,0,1,38.5-27.106Z" transform="translate(-7.735 27.12)" fill="#f40019" opacity="0.38"/>
          <path id="Path_7907" data-name="Path 7907" d="M41.768,38.8c.576-.2,1.345-.471,1.9-.72.948-.424,2.2-1.026,3.111-1.52a35.937,35.937,0,0,0,4.1-2.687,41.581,41.581,0,0,0,4.386-3.843,46.185,46.185,0,0,0,3.756-4.293c.543-.685,1.214-1.642,1.706-2.366.452-.67,1.028-1.584,1.439-2.281A42.35,42.35,0,0,0,64.644,16.2a36.546,36.546,0,0,0,1.734-5,44.21,44.21,0,0,0,.858-4.562,17.838,17.838,0,0,0,.173-2.613c-.012-.711,0-1.659-.042-2.369a23.728,23.728,0,0,0-.26-2.56c-.125-.684-.266-1.6-.423-2.278-.174-.751-.44-1.745-.675-2.479-.206-.647-.511-1.5-.769-2.13-.3-.726-.713-1.688-1.087-2.377A39.156,39.156,0,0,0,61.884-13.9c-.46-.638-1.106-1.463-1.609-2.066-.394-.47-.942-1.075-1.377-1.508-.582-.578-1.384-1.327-2-1.871-.392-.345-.934-.781-1.355-1.089s-.96-.7-1.383-.985c-.352-.238-.834-.534-1.2-.758-.589-.366-1.406-.8-2.027-1.112a30.982,30.982,0,0,0-2.97-1.3c-.443-.172-1.494-.53-2.319-.757a29.918,29.918,0,0,0-5.961-1.04c-1.42-.1-2.481-.075-2.49-.075-.618.016-1.444.052-2.061.1-.411.029-.957.092-1.367.144-.478.06-1.113.159-1.587.248s-1.135.232-1.618.344c-.759.174-1.753.483-2.495.72a23.154,23.154,0,0,1,14.918.148,23.154,23.154,0,0,0-14.918-.148h0a38.355,38.355,0,0,0-3.752,1.551c-.747.385-1.73.923-2.451,1.357-.563.34-1.294.827-1.823,1.22-.656.49-1.516,1.166-2.136,1.7-.515.44-1.169,1.064-1.643,1.546a29.628,29.628,0,0,0-3.148,3.771,29.483,29.483,0,0,0-2.485,4.248c-.336.7-.742,1.66-1.018,2.389-.256.674-.542,1.593-.754,2.281-.234.762-.463,1.8-.616,2.584C8.1-1.53,7.969-.542,7.867.2c-.155,1.14-.187,2.681-.226,3.832A40.006,40.006,0,0,0,7.97,9.473,45.282,45.282,0,0,0,9,14.926a44.118,44.118,0,0,0,4,10.3,36.716,36.716,0,0,0,2.865,4.49c.415.558.992,1.286,1.448,1.809.529.6,1.265,1.38,1.833,1.948.387.388.926.884,1.352,1.231a24.234,24.234,0,0,0,2.239,1.7,23.417,23.417,0,0,0,3.245,1.814,19.655,19.655,0,0,0,3.838,1.319c.317.077,1.033.225,1.7.318.895.123,1.535.165,1.912.179.356.013.833.021,1.19.021.225,0,.522-.012.747-.021.942-.041,1.793-.16,1.8-.161.349-.052.818-.117,1.165-.184.431-.082,1-.209,1.428-.309C40.375,39.242,41.177,39.008,41.768,38.8Z" transform="translate(-7.636 26.611)" fill="none"/>
          <path id="Path_7908" data-name="Path 7908" d="M118.737,20.8c-3.906-9.581-.551-20.007,7.494-23.287S143.966-.664,147.872,8.917s2.406,24.557-5.639,27.837S122.643,30.377,118.737,20.8Z" transform="translate(-92.762 8.742)" fill="rgba(255,252,252,0.4)"/>
        </g>
      </g>
    </g>
    <g id="Group_6974" data-name="Group 6974" transform="translate(-130.973 7.51)">
      <path id="Path_7909" data-name="Path 7909" d="M-130.225,192.563a31.1,31.1,0,0,1,23.609-37.112A31.1,31.1,0,0,1-69.5,179.061a31.1,31.1,0,0,1-23.609,37.112A31.1,31.1,0,0,1-130.225,192.563Z" transform="translate(130.973 -148.902)" fill="url(#radial-gradient-2)" style="mix-blend-mode: multiply;isolation: isolate"/>
      <g id="Group_6973" data-name="Group 6973" transform="translate(11.701)">
        <g id="Group_6971" data-name="Group 6971" transform="translate(34.201 61.164)">
          <path id="Path_7910" data-name="Path 7910" d="M75.632,412.675c-.578-2.422.069-8.4,2.492-8.981s5.7,4.465,6.279,6.887-1.317,3.179-3.738,3.757S76.209,415.1,75.632,412.675Z" transform="translate(-75.434 -403.648)" fill="#6effca"/>
          <path id="Path_7911" data-name="Path 7911" d="M78.124,403.694a2.357,2.357,0,0,1,1.735.379c-1.273,1.983-1.561,5.985-1.113,7.859s1.764,2.187,3.458,1.966a15.237,15.237,0,0,1-1.54.439c-2.424.579-4.456.759-5.033-1.663S75.7,404.273,78.124,403.694Z" transform="translate(-75.434 -403.649)" fill="#07d68b"/>
        </g>
        <path id="Path_7912" data-name="Path 7912" d="M84.393,412.8c1.4.216,6.8-1.726,6.581,1.295-.107,2.7-5.285.109-6.257-1.079,1.079,2.158,2.266,9.28-2.7,7.446-3.561-1.295-.541-5.4,1.186-6.8" transform="translate(-45.064 -349.28)" fill="none" stroke="#01f" stroke-width="0.25"/>
        <path id="Path_7913" data-name="Path 7913" d="M56.832,415.72a78.975,78.975,0,0,1-1.618,15.106c-.648,3.452-2.483,6.042-3.67,9.171-2.48,6.8-5.933,12.732-5.933,20.286a34.97,34.97,0,0,0,1.726,10.573c1.079,3.452,2.913,6.042,4.424,9.279" transform="translate(-18.042 -351.871)" fill="none" stroke="#01f" stroke-width="0.25"/>
        <g id="Group_6972" data-name="Group 6972">
          <path id="Path_7914" data-name="Path 7914" d="M-77.656,164.087c2.842,12.782,14.774,26.657,27.584,29.5a20.293,20.293,0,0,0,8.544.14c.1-.018.2-.041.3-.063a19.16,19.16,0,0,0,3.921-1.335,22.374,22.374,0,0,0,5.827-3.985,31.072,31.072,0,0,0,5.416-6.816,41.72,41.72,0,0,0,3.9-8.723,42.26,42.26,0,0,0,1.4-21.373,29.141,29.141,0,0,0-34.77-22.119A29.14,29.14,0,0,0-77.656,164.087Z" transform="translate(78.357 -128.616)" fill="#07d68b"/>
          <path id="Path_7915" data-name="Path 7915" d="M-55.535,129.784a29.392,29.392,0,0,1,3.581-.567,27.322,27.322,0,0,0-15.723,30.96c3.275,14.726,19.422,31,34.149,27.728a18.15,18.15,0,0,0,4.453-1.637,22.279,22.279,0,0,1-12.151,7.867c-15.709,3.494-32.937-13.87-36.43-29.581A29.141,29.141,0,0,1-55.535,129.784Z" transform="translate(78.357 -129.083)" fill="#3bebab"/>
          <path id="Path_7916" data-name="Path 7916" d="M-60.122,138.169A29.149,29.149,0,0,0-72.1,168.545c3.494,15.71,20.72,33.074,36.43,29.581a18.928,18.928,0,0,0,2.094-.6,20.119,20.119,0,0,1-7.644,3.566c-15.709,3.494-32.937-13.87-36.43-29.581A29.147,29.147,0,0,1-60.122,138.169Z" transform="translate(78.356 -136.044)" fill="#00b171"/>
          <path id="Path_7917" data-name="Path 7917" d="M-31.486,188.471c.436-.406,1.021-.946,1.422-1.387.683-.749,1.565-1.775,2.189-2.574a34.966,34.966,0,0,0,2.62-4,41.006,41.006,0,0,0,2.426-5.151,45.561,45.561,0,0,0,1.685-5.307c.219-.826.446-1.943.6-2.783.145-.776.3-1.818.4-2.6a41.47,41.47,0,0,0,.312-5.338,35.282,35.282,0,0,0-.4-5.149,42.4,42.4,0,0,0-1.011-4.416,17.384,17.384,0,0,0-.866-2.406c-.288-.632-.646-1.486-.961-2.1a23.078,23.078,0,0,0-1.233-2.19c-.379-.563-.862-1.327-1.266-1.873-.448-.6-1.075-1.388-1.571-1.955-.436-.5-1.045-1.144-1.52-1.605-.551-.532-1.3-1.233-1.9-1.7a38.649,38.649,0,0,0-3.489-2.461c-.659-.392-1.561-.877-2.246-1.22-.535-.267-1.263-.6-1.819-.812-.748-.292-1.758-.647-2.522-.893-.485-.157-1.14-.335-1.638-.445s-1.133-.252-1.621-.343c-.408-.075-.955-.153-1.365-.211-.67-.1-1.572-.169-2.247-.205a30.543,30.543,0,0,0-3.166,0c-.461.018-1.542.108-2.369.226a29.229,29.229,0,0,0-5.74,1.395c-1.311.465-2.25.9-2.258.906-.548.257-1.272.61-1.807.89-.356.185-.821.455-1.166.662-.4.24-.934.576-1.324.84s-.923.651-1.314.939c-.611.453-1.38,1.117-1.951,1.618A22.6,22.6,0,0,1-55.2,131.118,22.6,22.6,0,0,0-68.6,136.807h0a37.615,37.615,0,0,0-2.752,2.852c-.518.636-1.188,1.5-1.662,2.171-.372.524-.838,1.245-1.156,1.8-.4.693-.9,1.633-1.25,2.354-.288.594-.63,1.407-.867,2.024a29.063,29.063,0,0,0-1.345,4.6,29.014,29.014,0,0,0-.567,4.771c-.026.759-.016,1.775.021,2.535.035.7.138,1.635.217,2.334.087.773.288,1.793.457,2.552.156.713.427,1.647.624,2.35.306,1.081.879,2.471,1.293,3.516a39.151,39.151,0,0,0,2.418,4.742,44.12,44.12,0,0,0,3.049,4.478,43.1,43.1,0,0,0,7.6,7.661,35.858,35.858,0,0,0,4.317,2.9c.588.338,1.387.763,2,1.054.709.334,1.671.741,2.4,1.028.5.2,1.174.428,1.69.573a23.9,23.9,0,0,0,2.667.647,22.8,22.8,0,0,0,3.611.357,19.189,19.189,0,0,0,3.95-.318c.314-.054,1.012-.2,1.648-.38.849-.24,1.437-.45,1.78-.586.325-.128.753-.306,1.073-.446.2-.087.463-.215.658-.31.828-.4,1.544-.843,1.55-.846.294-.184.687-.425.972-.62.354-.24.815-.577,1.158-.832C-32.56,189.409-31.933,188.887-31.486,188.471Z" transform="translate(78.248 -129.14)" fill="none"/>
          <path id="Path_7918" data-name="Path 7918" d="M14.954,165.415c-7.217-7.032-8.281-17.645-2.376-23.7s16.543-5.273,23.758,1.759,11.707,20.985,5.8,27.045S22.169,172.447,14.954,165.415Z" transform="translate(10.613 -135.628)" fill="url(#linear-gradient)" style="mix-blend-mode: overlay;isolation: isolate"/>
        </g>
      </g>
    </g>
  </g>
</svg>
