<svg width="52" height="36" viewBox="0 0 52 36" fill="none" xmlns="http://www.w3.org/2000/svg">
<path d="M19.7078 0C18.628 0 17.5924 0.428953 16.8288 1.19249C16.0653 1.95603 15.6364 2.99162 15.6364 4.07143V31.461C15.6364 32.5408 16.0653 33.5764 16.8288 34.34C17.5924 35.1035 18.628 35.5325 19.7078 35.5325H32.2922C33.372 35.5325 34.4076 35.1035 35.1711 34.34C35.9347 33.5764 36.3636 32.5408 36.3636 31.461V4.07143C36.3636 2.99162 35.9347 1.95603 35.1711 1.19249C34.4076 0.428953 33.372 0 32.2922 0H19.7078ZM17.8571 4.07143C17.8571 3.04987 18.6862 2.22078 19.7078 2.22078H32.2922C33.3138 2.22078 34.1428 3.04987 34.1428 4.07143V31.461C34.1428 32.4826 33.3138 33.3117 32.2922 33.3117H19.7078C18.6862 33.3117 17.8571 32.4826 17.8571 31.461V4.07143ZM23.4091 28.1299C23.1146 28.1299 22.8322 28.2469 22.6239 28.4551C22.4157 28.6633 22.2987 28.9458 22.2987 29.2403C22.2987 29.5348 22.4157 29.8172 22.6239 30.0254C22.8322 30.2337 23.1146 30.3506 23.4091 30.3506H28.5909C28.8854 30.3506 29.1678 30.2337 29.3761 30.0254C29.5843 29.8172 29.7013 29.5348 29.7013 29.2403C29.7013 28.9458 29.5843 28.6633 29.3761 28.4551C29.1678 28.2469 28.8854 28.1299 28.5909 28.1299H23.4091Z" fill="#3E321B"/>
<path d="M6.13636 27.6363C6.13636 28.1132 6.52303 28.4999 7 28.4999C7.47697 28.4999 7.86364 28.1132 7.86364 27.6363H6.13636ZM45.6107 11.4801C45.2734 11.1429 44.7266 11.1429 44.3893 11.4801L38.8932 16.9763C38.5559 17.3136 38.5559 17.8604 38.8932 18.1977C39.2304 18.5349 39.7773 18.5349 40.1145 18.1977L45 13.3122L49.8855 18.1977C50.2227 18.5349 50.7696 18.5349 51.1068 18.1977C51.4441 17.8604 51.4441 17.3136 51.1068 16.9763L45.6107 11.4801ZM44.1364 27.6363C44.1364 28.1132 44.523 28.4999 45 28.4999C45.477 28.4999 45.8636 28.1132 45.8636 27.6363H44.1364ZM7.61068 11.4801C7.27341 11.1429 6.72659 11.1429 6.38932 11.4801L0.893169 16.9763C0.555897 17.3136 0.555897 17.8604 0.893169 18.1977C1.23044 18.5349 1.77726 18.5349 2.11454 18.1977L7 13.3122L11.8855 18.1977C12.2227 18.5349 12.7696 18.5349 13.1068 18.1977C13.4441 17.8604 13.4441 17.3136 13.1068 16.9763L7.61068 11.4801ZM6.13636 24.1817V27.6363H7.86364V24.1817H6.13636ZM44.1364 12.0908V23.3181H45.8636V12.0908H44.1364ZM44.1364 23.3181V27.6363H45.8636V23.3181H44.1364ZM6.13636 12.0908V18.1363H7.86364V12.0908H6.13636ZM6.13636 18.1363V24.1817H7.86364V18.1363H6.13636Z" fill="#3E321B"/>
</svg>
